name ./resultDataOpenSim/trcMotMarkerGrf/sub09/grf-12-05.mot
datacolumns 19
datarows 27
range 0.94400000 1.04800000
endheader

                time	     ground_force_vx	     ground_force_vy	     ground_force_vz	     ground_force_px	     ground_force_py	     ground_force_pz	   l_ground_force_vx	   l_ground_force_vy	   l_ground_force_vz	   l_ground_force_px	   l_ground_force_py	   l_ground_force_pz	     ground_torque_x	     ground_torque_y	     ground_torque_z	   l_ground_torque_x	   l_ground_torque_y	   l_ground_torque_z	
          0.94400000	          0.00000000	          0.00000000	          0.00000000	          0.00000000	          0.00000000	          0.00000000	         -1.79729159	        441.33860439	          8.20620874	          0.15699203	         -0.02500009	         -0.04227134	          0.00000000	          0.00000000	          0.00000000	          0.00000000	         -2.58076465	          0.00000000	
          0.94800000	          0.00000000	          0.00000000	          0.00000000	          0.00000000	          0.00000000	          0.00000000	          1.10208057	        452.24384713	          8.80879095	          0.15743501	         -0.02500008	         -0.04227713	          0.00000000	          0.00000000	          0.00000000	          0.00000000	         -2.78205710	          0.00000000	
          0.95200000	          0.00000000	          0.00000000	          0.00000000	          0.00000000	          0.00000000	          0.00000000	          4.29376705	        463.64014664	          9.77144963	          0.15780960	         -0.02500008	         -0.04230599	          0.00000000	          0.00000000	          0.00000000	          0.00000000	         -2.95098890	          0.00000000	
          0.95600000	          0.00000000	          0.00000000	          0.00000000	          0.00000000	          0.00000000	          0.00000000	          7.70204908	        475.45168653	         11.07941402	          0.15817681	         -0.02500053	         -0.04234716	          0.00000000	          0.00000000	          0.00000000	          0.00000000	         -3.08425082	          0.00000000	
          0.96000000	          0.00000000	          0.00000000	          0.00000000	          0.00000000	          0.00000000	          0.00000000	         11.24902642	        487.57720598	         12.71219738	          0.15862053	         -0.02500100	         -0.04237692	          0.00000000	          0.00000000	          0.00000000	          0.00000000	         -3.18264224	          0.00000000	
          0.96400000	          0.00000000	          0.00000000	          0.00000000	          0.00000000	          0.00000000	          0.00000000	         14.87883224	        499.91671325	         14.63114261	          0.15921430	         -0.02500100	         -0.04236639	          0.00000000	          0.00000000	          0.00000000	          0.00000000	         -3.25203472	          0.00000000	
          0.96800000	          0.00000000	          0.00000000	          0.00000000	          0.00000000	          0.00000000	          0.00000000	         18.57327699	        512.39786223	         16.73159592	          0.15999573	         -0.02500100	         -0.04229758	          0.00000000	          0.00000000	          0.00000000	          0.00000000	         -3.30378112	          0.00000000	
          0.97200000	          0.00000000	          0.00000000	          0.00000000	          0.00000000	          0.00000000	          0.00000000	         22.35086451	        525.00890222	         18.81993025	          0.16094652	         -0.02500100	         -0.04216551	          0.00000000	          0.00000000	          0.00000000	          0.00000000	         -3.35392602	          0.00000000	
          0.97600000	          0.00000000	          0.00000000	          0.00000000	          0.00000000	          0.00000000	          0.00000000	         26.26117045	        537.78946811	         20.65170670	          0.16201096	         -0.02500100	         -0.04197812	          0.00000000	          0.00000000	          0.00000000	          0.00000000	         -3.42077243	          0.00000000	
          0.98000000	          0.00000000	          0.00000000	          0.00000000	          0.00000000	          0.00000000	          0.00000000	         30.38388740	        550.77944913	         22.01051298	          0.16312642	         -0.02500100	         -0.04175258	          0.00000000	          0.00000000	          0.00000000	          0.00000000	         -3.52109042	          0.00000000	
          0.98400000	          0.00000000	          0.00000000	          0.00000000	          0.00000000	          0.00000000	          0.00000000	         34.82223704	        564.00372200	         22.78550100	          0.16424051	         -0.02500100	         -0.04150306	          0.00000000	          0.00000000	          0.00000000	          0.00000000	         -3.66609862	          0.00000000	
          0.98800000	          0.00000000	          0.00000000	          0.00000000	          0.00000000	          0.00000000	          0.00000000	         39.67784428	        577.50602360	         23.00830841	          0.16532419	         -0.02500100	         -0.04123192	          0.00000000	          0.00000000	          0.00000000	          0.00000000	         -3.85870137	          0.00000000	
          0.99200000	          0.00000000	          0.00000000	          0.00000000	          0.00000000	          0.00000000	          0.00000000	         45.00461018	        591.37299435	         22.82833230	          0.16634959	         -0.02500100	         -0.04094186	          0.00000000	          0.00000000	          0.00000000	          0.00000000	         -4.09300479	          0.00000000	
          0.99600000	          0.00000000	          0.00000000	          0.00000000	          0.00000000	          0.00000000	          0.00000000	         50.76929634	        605.72357697	         22.44764850	          0.16727814	         -0.02500100	         -0.04064830	          0.00000000	          0.00000000	          0.00000000	          0.00000000	         -4.35616852	          0.00000000	
          1.00000000	          0.00000000	          0.00000000	          0.00000000	          0.00000000	          0.00000000	          0.00000000	         56.85988048	        620.66362577	         22.05556928	          0.16806635	         -0.02500100	         -0.04037171	          0.00000000	          0.00000000	          0.00000000	          0.00000000	         -4.63182274	          0.00000000	
          1.00400000	          0.00000000	          0.00000000	          0.00000000	          0.00000000	          0.00000000	          0.00000000	         63.12884474	        636.22881079	         21.78446228	          0.16866562	         -0.02500100	         -0.04012784	          0.00000000	          0.00000000	          0.00000000	          0.00000000	         -4.90390344	          0.00000000	
          1.00800000	          0.00000000	          0.00000000	          0.00000000	          0.00000000	          0.00000000	          0.00000000	         69.43085693	        652.36459980	         21.69220964	          0.16909841	         -0.02500100	         -0.03991242	          0.00000000	          0.00000000	          0.00000000	          0.00000000	         -5.15972935	          0.00000000	
          1.01200000	          0.00000000	          0.00000000	          0.00000000	          0.00000000	          0.00000000	          0.00000000	         75.64904743	        668.92089247	         21.76889485	          0.16943373	         -0.02500100	         -0.03969672	          0.00000000	          0.00000000	          0.00000000	          0.00000000	         -5.39141736	          0.00000000	
          1.01600000	          0.00000000	          0.00000000	          0.00000000	          0.00000000	          0.00000000	          0.00000000	         81.71067965	        685.63711844	         21.95975120	          0.16978712	         -0.02500100	         -0.03945067	          0.00000000	          0.00000000	          0.00000000	          0.00000000	         -5.59538982	          0.00000000	
          1.02000000	          0.00000000	          0.00000000	          0.00000000	          0.00000000	          0.00000000	          0.00000000	         87.58011196	        702.17676171	         22.19592709	          0.17024832	         -0.02500100	         -0.03916444	          0.00000000	          0.00000000	          0.00000000	          0.00000000	         -5.77056454	          0.00000000	
          1.02400000	          0.00000000	          0.00000000	          0.00000000	          0.00000000	          0.00000000	          0.00000000	         93.23264017	        718.21568849	         22.42459049	          0.17084590	         -0.02500100	         -0.03884361	          0.00000000	          0.00000000	          0.00000000	          0.00000000	         -5.91631797	          0.00000000	
          1.02800000	          0.00000000	          0.00000000	          0.00000000	          0.00000000	          0.00000000	          0.00000000	         98.63793345	        733.51596884	         22.62451171	          0.17155696	         -0.02500100	         -0.03850660	          0.00000000	          0.00000000	          0.00000000	          0.00000000	         -6.03115045	          0.00000000	
          1.03200000	          0.00000000	          0.00000000	          0.00000000	          0.00000000	          0.00000000	          0.00000000	        103.76427287	        747.92931790	         22.79784426	          0.17234200	         -0.02500100	         -0.03817635	          0.00000000	          0.00000000	          0.00000000	          0.00000000	         -6.11238156	          0.00000000	
          1.03600000	          0.00000000	          0.00000000	          0.00000000	          0.00000000	          0.00000000	          0.00000000	        108.58637948	        761.33892954	         22.94893925	          0.17315401	         -0.02500100	         -0.03786894	          0.00000000	          0.00000000	          0.00000000	          0.00000000	         -6.15666981	          0.00000000	
          1.04000000	          0.00000000	          0.00000000	          0.00000000	          0.00000000	          0.00000000	          0.00000000	        113.09418744	        773.62720537	         23.06896908	          0.17394972	         -0.02500100	         -0.03759199	          0.00000000	          0.00000000	          0.00000000	          0.00000000	         -6.16094578	          0.00000000	
          1.04400000	          0.00000000	          0.00000000	          0.00000000	          0.00000000	          0.00000000	          0.00000000	        117.30468376	        784.70045549	         23.13554564	          0.17470179	         -0.02500100	         -0.03734123	          0.00000000	          0.00000000	          0.00000000	          0.00000000	         -6.12336477	          0.00000000	
          1.04800000	          0.00000000	          0.00000000	          0.00000000	          0.00000000	          0.00000000	          0.00000000	        121.26585114	        794.49996350	         23.12458801	          0.17539781	         -0.02500100	         -0.03710159	          0.00000000	          0.00000000	          0.00000000	          0.00000000	         -6.04399288	          0.00000000	
